<svg xmlns="http://www.w3.org/2000/svg" viewBox="0 0 160 160"><defs><style>.cls-1{fill:#f75c03;}.cls-2{fill:#2e3135;}</style></defs><title>orange-gts</title><g id="Layer_4" data-name="Layer 4"><rect class="cls-1" width="160" height="160" rx="5.7" ry="5.7"/><polygon class="cls-2" points="77.02 32 77.02 132 65.26 125.35 65.26 43.39 30 43.39 30 32 77.02 32"/><polygon class="cls-2" points="59.39 48.71 59.39 78.14 53.16 74.64 47.63 71.57 47.63 60.01 41.76 60.01 41.76 99.33 47.63 102.66 47.63 88.61 44.69 86.95 44.69 76.81 44.69 76.81 47.63 78.47 47.63 78.47 59.39 84.95 59.39 121.94 30 105.57 30 48.71 59.39 48.71"/><polygon class="cls-2" points="130 32 130 43.39 94.74 43.39 94.74 125.35 82.89 132 82.89 32 130 32"/><polygon class="cls-2" points="130 49.04 130 79.63 118.25 73.06 118.25 60.35 112.37 60.35 112.37 76.39 130 86.11 130 105.81 100.61 122.19 100.61 89.44 112.37 96.01 112.37 102.57 118.25 99.33 118.25 92.68 100.61 82.87 100.61 49.04 130 49.04"/></g></svg>