<svg width="416" height="416" viewBox="0 0 416 416" fill="none" xmlns="http://www.w3.org/2000/svg">
<g clip-path="url(#clip0_317_3591)">
<circle cx="208" cy="208" r="208" fill="url(#paint0_radial_317_3591)" fill-opacity="0.2"/>
<path d="M3.03906 172.377L172.377 3.03857C183.952 1.04102 195.854 0 208 0C210.31 0 212.61 0.0375977 214.901 0.112305L0.112305 214.901C0.0380859 212.61 0 210.309 0 208C0 195.854 1.04102 183.952 3.03906 172.377Z" fill="#F75C03" fill-opacity="0.25"/>
<path d="M9.30078 269.69C6.05859 259.236 3.61816 248.428 2.05273 237.34L237.34 2.05322C248.429 3.61865 259.235 6.05884 269.69 9.30103L9.30078 269.69Z" fill="#F75C03" fill-opacity="0.25"/>
<path d="M28.9873 313.981C23.9863 305.552 19.5635 296.739 15.7734 287.597L287.597 15.7737C296.738 19.5635 305.552 23.9863 313.981 28.9875L28.9873 313.981Z" fill="#F75C03" fill-opacity="0.25"/>
<path d="M56.4648 350.483C50.04 343.653 44.0732 336.388 38.6104 328.739L328.738 38.6104C336.388 44.0728 343.652 50.0403 350.482 56.4646L56.4648 350.483Z" fill="#F75C03" fill-opacity="0.25"/>
<path d="M90.9561 379.968C83.1699 374.658 75.7617 368.834 68.7832 362.543L362.543 68.7834C368.834 75.7625 374.659 83.1697 379.969 90.9563L90.9561 379.968Z" fill="#F75C03" fill-opacity="0.25"/>
<path d="M132.881 402.022C123.576 398.417 114.595 394.161 105.993 389.312L389.312 105.993C394.161 114.594 398.416 123.576 402.021 132.881L132.881 402.022Z" fill="#F75C03" fill-opacity="0.25"/>
<path d="M184.225 414.656C172.897 413.367 161.848 411.168 151.147 408.135L408.135 151.147C411.168 161.847 413.367 172.898 414.656 184.224L184.225 414.656Z" fill="#F75C03" fill-opacity="0.25"/>
<path d="M251.391 411.468C237.396 414.438 222.88 416 208 416C207.754 416 207.507 416 207.261 415.999L415.999 207.261C415.999 207.507 416 207.754 416 208C416 222.88 414.438 237.395 411.468 251.39L251.391 411.468Z" fill="#F75C03" fill-opacity="0.25"/>
<path d="M400.636 286.603C379.536 338.26 338.26 379.535 286.603 400.635L400.636 286.603Z" fill="#F75C03" fill-opacity="0.25"/>
<path d="M11.5469 139.488C32.3867 79.7263 79.7266 32.3872 139.488 11.5474L11.5469 139.488Z" fill="#F75C03" fill-opacity="0.25"/>
</g>
<defs>
<radialGradient id="paint0_radial_317_3591" cx="0" cy="0" r="1" gradientUnits="userSpaceOnUse" gradientTransform="translate(208 208) rotate(90) scale(208)">
<stop offset="0.833333" stop-color="#F75C03" stop-opacity="0.25"/>
<stop offset="1" stop-color="#F75C03"/>
</radialGradient>
<clipPath id="clip0_317_3591">
<rect width="416" height="416" fill="white"/>
</clipPath>
</defs>
</svg>
