<svg width="361" height="363" viewBox="0 0 361 363" fill="none" xmlns="http://www.w3.org/2000/svg">
<g clip-path="url(#clip0_317_3274)">
<circle cx="180" cy="182" r="181" fill="url(#paint0_radial_317_3274)" fill-opacity="0.25"/>
<path d="M76.9019 33.2125C96.6488 19.5037 119.255 9.62507 143.646 4.65189L2.65141 145.647C7.62458 121.256 17.5032 98.6493 31.212 78.9024L76.9019 33.2125Z" fill="#B5C8D6" fill-opacity="0.25"/>
<path d="M-0.926758 187.215L185.215 1.07373C196.856 1.4031 208.222 2.83165 219.213 5.25927L3.25879 221.213C0.831165 210.223 -0.597389 198.856 -0.926758 187.215Z" fill="#B5C8D6" fill-opacity="0.25"/>
<path d="M24.8909 275.339C20.0103 267.246 15.7453 258.74 12.1605 249.885L247.885 14.161C256.739 17.7457 265.245 22.0108 273.338 26.8914L24.8909 275.339Z" fill="#B5C8D6" fill-opacity="0.25"/>
<path d="M59.5189 317.078C52.7966 311.078 46.525 304.584 40.7612 297.652L295.651 42.7617C302.583 48.5255 309.077 54.7971 315.078 61.5194L59.5189 317.078Z" fill="#B5C8D6" fill-opacity="0.25"/>
<path d="M105.396 346.959C96.8087 343.069 88.5793 338.529 80.7705 333.4L331.4 82.771C336.528 90.5798 341.069 98.8092 344.958 107.396L105.396 346.959Z" fill="#B5C8D6" fill-opacity="0.25"/>
<path d="M166.057 362.471C154.856 361.618 143.939 359.745 133.4 356.945L354.944 135.4C357.744 145.939 359.617 156.856 360.471 168.058L166.057 362.471Z" fill="#B5C8D6" fill-opacity="0.25"/>
<path d="M259.762 344.523C242.767 352.88 224.269 358.649 204.784 361.317L359.317 206.784C356.649 226.27 350.879 244.767 342.522 261.763L259.762 344.523Z" fill="#B5C8D6" fill-opacity="0.25"/>
</g>
<defs>
<radialGradient id="paint0_radial_317_3274" cx="0" cy="0" r="1" gradientUnits="userSpaceOnUse" gradientTransform="translate(180 182) rotate(90) scale(181)">
<stop offset="0.796875" stop-color="#B5C8D6" stop-opacity="0.25"/>
<stop offset="1" stop-color="#B5C8D6"/>
</radialGradient>
<clipPath id="clip0_317_3274">
<rect width="361" height="363" fill="white"/>
</clipPath>
</defs>
</svg>
